<svg width="20" height="19" viewBox="0 0 20 19" fill="none" xmlns="http://www.w3.org/2000/svg">
<path d="M14.1677 10.9659C14.3461 10.4892 14.4365 9.98417 14.4348 9.47522C14.4348 8.34517 13.9858 7.2614 13.1868 6.46233C12.3877 5.66327 11.3039 5.21436 10.1739 5.21436C9.67121 5.21494 9.17269 5.30539 8.70184 5.48144L9.70184 6.51249C9.85385 6.48817 10.0075 6.47571 10.1615 6.47522C10.9605 6.47356 11.7277 6.78811 12.2956 7.35019C12.8635 7.91227 13.186 8.67622 13.1925 9.47522C13.192 9.62917 13.1796 9.78284 13.1553 9.93485L14.1677 10.9659Z" fill="#F5F5F5"/>
<path d="M19.8199 9.18335C17.7267 5.31378 14.0559 2.97217 9.99379 2.97217C8.8878 2.97476 7.78924 3.15297 6.73914 3.50012L7.73914 4.50633C8.47569 4.31598 9.23305 4.21791 9.99379 4.2144C13.4907 4.2144 16.6708 6.16471 18.5652 9.45043C17.8703 10.6694 16.949 11.7446 15.8509 12.6181L16.7329 13.5001C18.0038 12.4749 19.0592 11.2083 19.8385 9.77341L20 9.47527L19.8199 9.18335Z" fill="#F5F5F5"/>
<path d="M1.54658 1.88518L4.31677 4.65537C2.56579 5.78277 1.13472 7.34218 0.161491 9.18332L0 9.47524L0.161491 9.77338C2.25466 13.6429 5.92546 15.9846 9.98757 15.9846C11.5731 15.9842 13.138 15.6254 14.5652 14.9349L17.6708 18.0405L18.7578 17.1088L2.6087 0.959717L1.54658 1.88518ZM7.60248 7.94108L11.7329 12.0715C11.2662 12.3604 10.729 12.5151 10.1801 12.5187C9.78132 12.5187 9.38645 12.4399 9.01824 12.2867C8.65003 12.1335 8.31575 11.909 8.03462 11.6262C7.75349 11.3433 7.53107 11.0077 7.38016 10.6385C7.22925 10.2694 7.15282 9.87404 7.15528 9.47524C7.16228 8.93274 7.31688 8.40238 7.60248 7.94108ZM6.70186 7.04046C6.12077 7.85996 5.8484 8.85866 5.93299 9.85971C6.01758 10.8608 6.45367 11.7996 7.16404 12.51C7.87441 13.2203 8.81324 13.6564 9.81429 13.741C10.8153 13.8256 11.814 13.5532 12.6335 12.9721L13.6273 13.9659C12.4769 14.4577 11.2387 14.7112 9.98757 14.7113C6.49068 14.7113 3.31056 12.761 1.41615 9.47524C2.32528 7.86544 3.63461 6.5176 5.21739 5.5622L6.70186 7.04046Z" fill="#F5F5F5"/>
</svg>
