<svg width="22" height="13" viewBox="0 0 22 13" fill="none" xmlns="http://www.w3.org/2000/svg">
<path d="M20.172 6.21802C18.15 2.48002 14.604 0.218018 10.68 0.218018C6.75598 0.218018 3.20398 2.48002 1.19998 6.21802L1.03198 6.50002L1.18798 6.78802C3.20998 10.526 6.75598 12.788 10.68 12.788C14.604 12.788 18.156 10.556 20.172 6.78802L20.328 6.50002L20.172 6.21802ZM10.68 11.558C7.30198 11.558 4.19998 9.67402 2.39998 6.50002C4.19998 3.32602 7.30198 1.44202 10.68 1.44202C14.058 1.44202 17.124 3.33202 18.954 6.50002C17.124 9.67402 14.052 11.558 10.68 11.558Z" fill="#F5F5F5"/>
<path d="M10.854 2.40197C10.0404 2.4079 9.24692 2.65479 8.57362 3.11145C7.90033 3.56811 7.37746 4.21406 7.07107 4.96771C6.76467 5.72136 6.68849 6.5489 6.85214 7.34583C7.0158 8.14275 7.41194 8.87329 7.99055 9.4452C8.56916 10.0171 9.30427 10.4047 10.103 10.5591C10.9018 10.7134 11.7284 10.6276 12.4784 10.3125C13.2285 9.99733 13.8683 9.46699 14.3171 8.78842C14.7659 8.10985 15.0035 7.31351 15 6.49996C14.9976 5.95843 14.8884 5.42268 14.6786 4.92342C14.4689 4.42416 14.1626 3.9712 13.7775 3.59051C13.3923 3.20982 12.9358 2.90887 12.4342 2.70492C11.9325 2.50096 11.3955 2.39801 10.854 2.40197ZM10.854 9.43396C10.2793 9.42804 9.71924 9.25245 9.24406 8.92925C8.76888 8.60605 8.39979 8.14965 8.18315 7.61737C7.96652 7.08509 7.91199 6.50066 8.02642 5.93749C8.14084 5.37432 8.41913 4.85752 8.82631 4.45199C9.2335 4.04646 9.75143 3.77029 10.3151 3.65816C10.8787 3.54604 11.4629 3.60295 11.9943 3.82176C12.5257 4.04057 12.9806 4.41151 13.3018 4.88801C13.6231 5.3645 13.7964 5.9253 13.8 6.49996C13.8016 6.88672 13.7264 7.26995 13.5787 7.62743C13.4311 7.98491 13.214 8.30952 12.9399 8.58244C12.6659 8.85537 12.3404 9.07117 11.9823 9.21734C11.6243 9.36351 11.2407 9.43714 10.854 9.43396Z" fill="#F5F5F5"/>
</svg>
