<svg width="121" height="121" viewBox="0 0 121 121" fill="none" xmlns="http://www.w3.org/2000/svg">
<circle opacity="0.4" cx="60.5" cy="60.5" r="60.5" fill="#1A1A1A"/>
<path d="M69.2638 47L51.1252 36.3966V57.6034L69.2638 47ZM71.7389 44.8082C72.1221 45.0292 72.4405 45.3483 72.6619 45.7332C72.8834 46.1181 73 46.5551 73 47C73 47.4449 72.8834 47.8819 72.6619 48.2668C72.4405 48.6517 72.1221 48.9708 71.7389 49.1919L51.8534 60.8187C50.2283 61.7698 48 60.6833 48 58.6269V35.3731C48 33.3167 50.2283 32.2302 51.8534 33.1813L71.7389 44.8082Z" fill="#F5F5F5"/>
<path d="M24.36 86V74.64H29.096C29.5973 74.64 30.056 74.7467 30.472 74.96C30.888 75.1627 31.2507 75.44 31.56 75.792C31.8693 76.1333 32.1093 76.5227 32.28 76.96C32.4507 77.3867 32.536 77.824 32.536 78.272C32.536 78.8907 32.3973 79.4827 32.12 80.048C31.8427 80.6027 31.4533 81.056 30.952 81.408C30.4507 81.7493 29.864 81.92 29.192 81.92H25.8V86H24.36ZM25.8 80.64H29.112C29.5067 80.64 29.848 80.5333 30.136 80.32C30.4347 80.1067 30.664 79.8187 30.824 79.456C30.9947 79.0933 31.08 78.6987 31.08 78.272C31.08 77.824 30.984 77.424 30.792 77.072C30.6 76.7093 30.3493 76.4267 30.04 76.224C29.7307 76.0213 29.3893 75.92 29.016 75.92H25.8V80.64ZM33.4967 74.32H34.9047V83.84C34.9047 84.2987 34.9687 84.5813 35.0967 84.688C35.2247 84.7947 35.3794 84.848 35.5607 84.848C35.7847 84.848 35.9981 84.8267 36.2007 84.784C36.4034 84.7307 36.5741 84.6773 36.7127 84.624L36.9367 85.776C36.7021 85.872 36.4247 85.952 36.1047 86.016C35.7847 86.08 35.5021 86.112 35.2567 86.112C34.7127 86.112 34.2807 85.9573 33.9607 85.648C33.6514 85.3387 33.4967 84.9067 33.4967 84.352V74.32ZM36.7469 83.584C36.7469 83.0507 36.8962 82.592 37.1949 82.208C37.5042 81.8133 37.9255 81.5093 38.4589 81.296C38.9922 81.0827 39.6109 80.976 40.3149 80.976C40.6882 80.976 41.0829 81.008 41.4989 81.072C41.9149 81.1253 42.2829 81.2107 42.6029 81.328V80.72C42.6029 80.08 42.4109 79.5787 42.0269 79.216C41.6429 78.8427 41.0989 78.656 40.3949 78.656C39.9362 78.656 39.4935 78.7413 39.0669 78.912C38.6509 79.072 38.2082 79.3067 37.7389 79.616L37.2269 78.624C37.7709 78.2507 38.3149 77.9733 38.8589 77.792C39.4029 77.6 39.9682 77.504 40.5549 77.504C41.6215 77.504 42.4642 77.8027 43.0829 78.4C43.7015 78.9867 44.0109 79.808 44.0109 80.864V84.4C44.0109 84.5707 44.0429 84.6987 44.1069 84.784C44.1815 84.8587 44.2989 84.9013 44.4589 84.912V86C44.3202 86.0213 44.1975 86.0373 44.0909 86.048C43.9949 86.0587 43.9149 86.064 43.8509 86.064C43.5202 86.064 43.2695 85.9733 43.0989 85.792C42.9389 85.6107 42.8482 85.4187 42.8269 85.216L42.7949 84.688C42.4322 85.1573 41.9575 85.52 41.3709 85.776C40.7842 86.032 40.2029 86.16 39.6269 86.16C39.0722 86.16 38.5762 86.048 38.1389 85.824C37.7015 85.5893 37.3602 85.28 37.1149 84.896C36.8695 84.5013 36.7469 84.064 36.7469 83.584ZM42.1869 84.176C42.3149 84.0267 42.4162 83.8773 42.4909 83.728C42.5655 83.568 42.6029 83.4347 42.6029 83.328V82.288C42.2722 82.16 41.9255 82.064 41.5629 82C41.2002 81.9253 40.8429 81.888 40.4909 81.888C39.7762 81.888 39.1949 82.032 38.7469 82.32C38.3095 82.5973 38.0909 82.9813 38.0909 83.472C38.0909 83.7387 38.1602 84 38.2989 84.256C38.4482 84.5013 38.6615 84.704 38.9389 84.864C39.2269 85.024 39.5789 85.104 39.9949 85.104C40.4322 85.104 40.8482 85.0187 41.2429 84.848C41.6375 84.6667 41.9522 84.4427 42.1869 84.176ZM45.7406 88.272C45.8793 88.2827 46.018 88.2933 46.1566 88.304C46.2953 88.3253 46.402 88.336 46.4766 88.336C46.6473 88.336 46.7966 88.2773 46.9246 88.16C47.0526 88.0427 47.1913 87.8133 47.3406 87.472C47.5006 87.1413 47.7033 86.6507 47.9486 86L44.4126 77.648H45.9006L48.7166 84.576L51.2606 77.648H52.6526L48.5886 88.192C48.4926 88.4373 48.3486 88.6667 48.1566 88.88C47.9753 89.104 47.7406 89.28 47.4526 89.408C47.1646 89.536 46.818 89.6 46.4126 89.6C46.3166 89.6 46.2153 89.5947 46.1086 89.584C46.0126 89.5733 45.89 89.552 45.7406 89.52V88.272ZM64.3364 75.92H60.4164V86H58.9764V75.92H55.0564V74.64H64.3364V75.92ZM68.2276 78.88C67.5236 78.8907 66.8996 79.072 66.3556 79.424C65.8223 79.7653 65.4436 80.24 65.2196 80.848V86H63.8116V77.648H65.1236V79.584C65.4116 79.008 65.7903 78.544 66.2596 78.192C66.7396 77.8293 67.241 77.6267 67.7636 77.584C67.8703 77.584 67.961 77.584 68.0356 77.584C68.1103 77.584 68.1743 77.5893 68.2276 77.6V78.88ZM68.3281 83.584C68.3281 83.0507 68.4775 82.592 68.7761 82.208C69.0855 81.8133 69.5068 81.5093 70.0401 81.296C70.5735 81.0827 71.1921 80.976 71.8961 80.976C72.2695 80.976 72.6641 81.008 73.0801 81.072C73.4961 81.1253 73.8641 81.2107 74.1841 81.328V80.72C74.1841 80.08 73.9921 79.5787 73.6081 79.216C73.2241 78.8427 72.6801 78.656 71.9761 78.656C71.5175 78.656 71.0748 78.7413 70.6481 78.912C70.2321 79.072 69.7895 79.3067 69.3201 79.616L68.8081 78.624C69.3521 78.2507 69.8961 77.9733 70.4401 77.792C70.9841 77.6 71.5495 77.504 72.1361 77.504C73.2028 77.504 74.0455 77.8027 74.6641 78.4C75.2828 78.9867 75.5921 79.808 75.5921 80.864V84.4C75.5921 84.5707 75.6241 84.6987 75.6881 84.784C75.7628 84.8587 75.8801 84.9013 76.0401 84.912V86C75.9015 86.0213 75.7788 86.0373 75.6721 86.048C75.5761 86.0587 75.4961 86.064 75.4321 86.064C75.1015 86.064 74.8508 85.9733 74.6801 85.792C74.5201 85.6107 74.4295 85.4187 74.4081 85.216L74.3761 84.688C74.0135 85.1573 73.5388 85.52 72.9521 85.776C72.3655 86.032 71.7841 86.16 71.2081 86.16C70.6535 86.16 70.1575 86.048 69.7201 85.824C69.2828 85.5893 68.9415 85.28 68.6961 84.896C68.4508 84.5013 68.3281 84.064 68.3281 83.584ZM73.7681 84.176C73.8961 84.0267 73.9975 83.8773 74.0721 83.728C74.1468 83.568 74.1841 83.4347 74.1841 83.328V82.288C73.8535 82.16 73.5068 82.064 73.1441 82C72.7815 81.9253 72.4241 81.888 72.0721 81.888C71.3575 81.888 70.7761 82.032 70.3281 82.32C69.8908 82.5973 69.6721 82.9813 69.6721 83.472C69.6721 83.7387 69.7415 84 69.8801 84.256C70.0295 84.5013 70.2428 84.704 70.5201 84.864C70.8081 85.024 71.1601 85.104 71.5761 85.104C72.0135 85.104 72.4295 85.0187 72.8241 84.848C73.2188 84.6667 73.5335 84.4427 73.7681 84.176ZM77.2035 86V77.648H78.6115V86H77.2035ZM77.2035 76.08V74.32H78.6115V76.08H77.2035ZM80.283 74.32H81.691V83.84C81.691 84.2987 81.755 84.5813 81.883 84.688C82.011 84.7947 82.1657 84.848 82.347 84.848C82.571 84.848 82.7843 84.8267 82.987 84.784C83.1897 84.7307 83.3603 84.6773 83.499 84.624L83.723 85.776C83.4883 85.872 83.211 85.952 82.891 86.016C82.571 86.08 82.2883 86.112 82.043 86.112C81.499 86.112 81.067 85.9573 80.747 85.648C80.4377 85.3387 80.283 84.9067 80.283 84.352V74.32ZM87.8851 86.16C87.2558 86.16 86.6798 86.048 86.1571 85.824C85.6451 85.5893 85.1971 85.2747 84.8131 84.88C84.4398 84.4747 84.1465 84.0107 83.9331 83.488C83.7305 82.9653 83.6291 82.4107 83.6291 81.824C83.6291 81.0347 83.8105 80.3147 84.1731 79.664C84.5358 79.0133 85.0371 78.4907 85.6771 78.096C86.3278 77.7013 87.0691 77.504 87.9011 77.504C88.7438 77.504 89.4745 77.7067 90.0931 78.112C90.7225 78.5067 91.2078 79.0293 91.5491 79.68C91.9011 80.32 92.0771 81.0133 92.0771 81.76C92.0771 81.8667 92.0718 81.9733 92.0611 82.08C92.0611 82.176 92.0558 82.2507 92.0451 82.304H85.1171C85.1598 82.848 85.3091 83.3333 85.5651 83.76C85.8318 84.176 86.1731 84.5067 86.5891 84.752C87.0051 84.9867 87.4531 85.104 87.9331 85.104C88.4451 85.104 88.9251 84.976 89.3731 84.72C89.8318 84.464 90.1465 84.128 90.3171 83.712L91.5331 84.048C91.3518 84.4533 91.0798 84.816 90.7171 85.136C90.3651 85.456 89.9438 85.7067 89.4531 85.888C88.9731 86.0693 88.4505 86.16 87.8851 86.16ZM85.0691 81.328H90.7651C90.7225 80.784 90.5678 80.304 90.3011 79.888C90.0345 79.472 89.6931 79.1467 89.2771 78.912C88.8611 78.6773 88.4025 78.56 87.9011 78.56C87.4105 78.56 86.9571 78.6773 86.5411 78.912C86.1251 79.1467 85.7838 79.472 85.5171 79.888C85.2611 80.304 85.1118 80.784 85.0691 81.328ZM97.4182 78.88C96.7142 78.8907 96.0902 79.072 95.5462 79.424C95.0129 79.7653 94.6342 80.24 94.4102 80.848V86H93.0022V77.648H94.3142V79.584C94.6022 79.008 94.9809 78.544 95.4502 78.192C95.9302 77.8293 96.4316 77.6267 96.9542 77.584C97.0609 77.584 97.1516 77.584 97.2262 77.584C97.3009 77.584 97.3649 77.5893 97.4182 77.6V78.88Z" fill="#F5F5F5"/>
</svg>
